<svg id="visual" viewBox="0 0 900 600" width="900" height="600" xmlns="http://www.w3.org/2000/svg" xmlns:xlink="http://www.w3.org/1999/xlink" version="1.1"><rect x="0" y="0" width="900" height="600" fill="#FFFFFF"></rect><defs><linearGradient id="grad1_0" x1="33.3%" y1="100%" x2="100%" y2="0%"><stop offset="20%" stop-color="#ffffff" stop-opacity="1"></stop><stop offset="80%" stop-color="#ffffff" stop-opacity="1"></stop></linearGradient></defs><defs><linearGradient id="grad2_0" x1="0%" y1="100%" x2="66.7%" y2="0%"><stop offset="20%" stop-color="#ffffff" stop-opacity="1"></stop><stop offset="80%" stop-color="#ffffff" stop-opacity="1"></stop></linearGradient></defs><g transform="translate(900, 600)"><path d="M-540.8 0C-516.3 -24 -491.8 -48 -470.2 -67.6C-448.5 -87.2 -429.8 -102.4 -433.7 -127.3C-437.6 -152.3 -464 -187.1 -463.9 -211.9C-463.8 -236.7 -437.1 -251.6 -418.9 -269.2C-400.8 -286.9 -391.1 -307.4 -377.9 -327.4C-364.7 -347.4 -348 -367 -324.8 -374.9C-301.6 -382.7 -271.9 -378.9 -253.6 -394.5C-235.2 -410.2 -228.4 -445.2 -211.9 -463.9C-195.4 -482.6 -169.3 -485.1 -145.7 -496.1C-122 -507 -100.8 -526.5 -77 -535.3C-53.1 -544.2 -26.6 -542.5 0 -540.8L0 0Z" fill="#FBAE3C"></path></g><g transform="translate(0, 0)"><path d="M540.8 0C548.9 28.1 557 56.2 535.3 77C513.7 97.7 462.2 111.1 436.6 128.2C410.9 145.3 411 166.2 406.6 185.7C402.2 205.2 393.2 223.4 397.1 255.2C400.9 286.9 417.6 332.2 400.5 347.1C383.5 361.9 332.8 346.3 305.2 352.2C277.5 358 273 385.3 259.5 403.8C246 422.3 223.7 432 201.1 440.3C178.4 448.5 155.5 455.3 132.4 451C109.3 446.7 86 431.3 63.9 444.4C41.8 457.6 20.9 499.2 0 540.8L0 0Z" fill="#FBAE3C"></path></g></svg>