<svg id="visual" viewBox="0 0 900 600" width="900" height="600" xmlns="http://www.w3.org/2000/svg" xmlns:xlink="http://www.w3.org/1999/xlink" version="1.1"><rect x="0" y="0" width="900" height="600" fill="#FFFFFF"></rect><defs><linearGradient id="grad1_0" x1="33.3%" y1="100%" x2="100%" y2="0%"><stop offset="20%" stop-color="#ffffff" stop-opacity="1"></stop><stop offset="80%" stop-color="#ffffff" stop-opacity="1"></stop></linearGradient></defs><defs><linearGradient id="grad2_0" x1="0%" y1="100%" x2="66.7%" y2="0%"><stop offset="20%" stop-color="#ffffff" stop-opacity="1"></stop><stop offset="80%" stop-color="#ffffff" stop-opacity="1"></stop></linearGradient></defs><g transform="translate(900, 600)"><path d="M-297.5 0C-279.8 -11.9 -262.2 -23.7 -261.3 -37.6C-260.4 -51.4 -276.4 -67.2 -280.2 -82.3C-284 -97.3 -275.7 -111.7 -260.2 -118.8C-244.6 -125.9 -221.8 -125.9 -217.9 -140C-214 -154.2 -229.1 -182.6 -223.7 -193.8C-218.3 -205.1 -192.4 -199.3 -178.8 -206.3C-165.2 -213.3 -163.9 -233.1 -154.1 -239.8C-144.3 -246.4 -125.9 -240 -113.8 -249.2C-101.8 -258.5 -96 -283.5 -83.8 -285.4C-71.6 -287.3 -53 -266.1 -38 -264.3C-23 -262.4 -11.5 -279.9 0 -297.5L0 0Z" fill="#FBAE3C"></path></g><g transform="translate(0, 0)"><path d="M297.5 0C288.4 13.6 279.4 27.1 268.2 38.6C257.1 50 243.7 59.3 238.9 70.2C234.1 81 237.8 93.2 245.6 112.2C253.4 131.1 265.4 156.6 250.2 160.8C235.1 165 192.7 147.8 182.1 157.8C171.6 167.9 192.8 205.2 191.2 220.7C189.6 236.2 165.1 229.9 149.8 233C134.4 236.2 128.1 248.7 118.4 259.2C108.7 269.8 95.6 278.4 81.4 277.3C67.3 276.2 52.2 265.5 38.4 267.3C24.7 269 12.3 283.2 0 297.5L0 0Z" fill="#FBAE3C"></path></g></svg>