<svg id="visual" viewBox="0 0 900 600" width="900" height="600" xmlns="http://www.w3.org/2000/svg" xmlns:xlink="http://www.w3.org/1999/xlink" version="1.1"><g transform="translate(37.007183395407026 -18.025758309291717)"><path d="M212.8 -274.2C255.9 -217.4 257.2 -131.5 274.8 -46.3C292.4 38.9 326.4 123.5 311.5 208.6C296.6 293.7 233 379.4 155.9 391.4C78.9 403.4 -11.5 341.7 -115.5 308C-219.5 274.2 -337.1 268.3 -374.6 212.1C-412.1 155.8 -369.5 49.1 -334.8 -43.6C-300 -136.2 -273.1 -214.8 -218.6 -269.5C-164.1 -324.3 -82.1 -355.1 1.4 -356.8C84.8 -358.5 169.7 -330.9 212.8 -274.2" fill="#FFFFFF"></path></g></svg>